<svg width="166" height="41" viewBox="0 0 166 41" fill="none" xmlns="http://www.w3.org/2000/svg">
<path d="M59.6 30.216C57.92 30.216 56.448 29.856 55.184 29.136C53.936 28.416 52.976 27.4 52.304 26.088C51.632 24.76 51.296 23.208 51.296 21.432C51.296 19.672 51.632 18.136 52.304 16.824C52.976 15.496 53.936 14.48 55.184 13.776C56.448 13.056 57.92 12.696 59.6 12.696C60.752 12.696 61.832 12.88 62.84 13.248C63.864 13.6 64.712 14.096 65.384 14.736L64.376 16.992C63.608 16.368 62.84 15.92 62.072 15.648C61.32 15.36 60.512 15.216 59.648 15.216C58 15.216 56.72 15.752 55.808 16.824C54.912 17.896 54.464 19.432 54.464 21.432C54.464 23.448 54.912 25 55.808 26.088C56.704 27.16 57.984 27.696 59.648 27.696C60.512 27.696 61.32 27.56 62.072 27.288C62.84 27 63.608 26.544 64.376 25.92L65.384 28.176C64.712 28.816 63.864 29.32 62.84 29.688C61.832 30.04 60.752 30.216 59.6 30.216ZM79.4193 17.88V30H76.4673V28.056C76.0993 28.728 75.5713 29.256 74.8833 29.64C74.1953 30.008 73.4113 30.192 72.5313 30.192C71.4753 30.192 70.5393 29.936 69.7233 29.424C68.9073 28.912 68.2753 28.184 67.8273 27.24C67.3793 26.296 67.1553 25.2 67.1553 23.952C67.1553 22.704 67.3793 21.6 67.8273 20.64C68.2913 19.664 68.9313 18.912 69.7473 18.384C70.5633 17.84 71.4913 17.568 72.5313 17.568C73.4113 17.568 74.1953 17.76 74.8833 18.144C75.5713 18.512 76.0993 19.032 76.4673 19.704V17.88H79.4193ZM73.3473 27.84C74.3393 27.84 75.1073 27.496 75.6513 26.808C76.1953 26.12 76.4673 25.152 76.4673 23.904C76.4673 22.624 76.1953 21.64 75.6513 20.952C75.1073 20.264 74.3313 19.92 73.3233 19.92C72.3313 19.92 71.5553 20.28 70.9953 21C70.4513 21.704 70.1793 22.688 70.1793 23.952C70.1793 25.2 70.4513 26.16 70.9953 26.832C71.5553 27.504 72.3393 27.84 73.3473 27.84ZM89.2147 17.592C89.6787 17.592 90.0787 17.656 90.4147 17.784L90.3907 20.52C89.8787 20.312 89.3507 20.208 88.8067 20.208C87.7827 20.208 86.9987 20.504 86.4547 21.096C85.9267 21.688 85.6627 22.472 85.6627 23.448V30H82.6867V21.312C82.6867 20.032 82.6227 18.888 82.4947 17.88H85.3027L85.5427 20.016C85.8467 19.232 86.3267 18.632 86.9827 18.216C87.6387 17.8 88.3827 17.592 89.2147 17.592ZM98.9971 17.568C100.053 17.568 100.981 17.832 101.781 18.36C102.597 18.872 103.229 19.6 103.677 20.544C104.125 21.488 104.349 22.584 104.349 23.832C104.349 25.08 104.117 26.192 103.653 27.168C103.205 28.128 102.573 28.872 101.757 29.4C100.957 29.928 100.037 30.192 98.9971 30.192C98.1011 30.192 97.3011 30 96.5971 29.616C95.9091 29.232 95.3891 28.696 95.0371 28.008V30H92.0851V12.336H95.0611V19.704C95.4291 19.032 95.9571 18.512 96.6451 18.144C97.3331 17.76 98.1171 17.568 98.9971 17.568ZM98.2051 27.84C99.1971 27.84 99.9651 27.488 100.509 26.784C101.053 26.08 101.325 25.096 101.325 23.832C101.325 22.584 101.053 21.624 100.509 20.952C99.9651 20.264 99.1891 19.92 98.1811 19.92C97.1731 19.92 96.3971 20.264 95.8531 20.952C95.3091 21.64 95.0371 22.616 95.0371 23.88C95.0371 25.16 95.3091 26.144 95.8531 26.832C96.3971 27.504 97.1811 27.84 98.2051 27.84ZM117.576 24.096H109.224C109.288 25.392 109.608 26.352 110.184 26.976C110.776 27.584 111.648 27.888 112.8 27.888C114.128 27.888 115.36 27.456 116.496 26.592L117.36 28.656C116.784 29.12 116.072 29.496 115.224 29.784C114.392 30.056 113.544 30.192 112.68 30.192C110.696 30.192 109.136 29.632 108 28.512C106.864 27.392 106.296 25.856 106.296 23.904C106.296 22.672 106.544 21.576 107.04 20.616C107.536 19.656 108.232 18.912 109.128 18.384C110.024 17.84 111.04 17.568 112.176 17.568C113.84 17.568 115.152 18.112 116.112 19.2C117.088 20.272 117.576 21.752 117.576 23.64V24.096ZM112.248 19.728C111.448 19.728 110.792 19.968 110.28 20.448C109.784 20.912 109.464 21.592 109.32 22.488H114.96C114.864 21.576 114.584 20.888 114.12 20.424C113.672 19.96 113.048 19.728 112.248 19.728ZM123.768 20.136V25.56C123.768 26.984 124.432 27.696 125.76 27.696C126.128 27.696 126.528 27.632 126.96 27.504V29.88C126.432 30.072 125.792 30.168 125.04 30.168C123.664 30.168 122.608 29.784 121.872 29.016C121.136 28.248 120.768 27.144 120.768 25.704V20.136H118.44V17.88H120.768V14.928L123.768 13.92V17.88H126.984V20.136H123.768ZM133.486 30.192C131.294 30.192 129.55 29.68 128.254 28.656L129.094 26.544C130.39 27.504 131.87 27.984 133.534 27.984C134.254 27.984 134.806 27.864 135.19 27.624C135.59 27.384 135.79 27.048 135.79 26.616C135.79 26.248 135.654 25.96 135.382 25.752C135.11 25.528 134.646 25.336 133.99 25.176L131.974 24.72C129.766 24.24 128.662 23.112 128.662 21.336C128.662 20.6 128.87 19.952 129.286 19.392C129.702 18.816 130.286 18.368 131.038 18.048C131.79 17.728 132.662 17.568 133.654 17.568C134.518 17.568 135.35 17.704 136.15 17.976C136.95 18.232 137.654 18.608 138.262 19.104L137.374 21.144C136.158 20.248 134.91 19.8 133.63 19.8C132.942 19.8 132.406 19.928 132.022 20.184C131.638 20.44 131.446 20.792 131.446 21.24C131.446 21.592 131.558 21.872 131.782 22.08C132.022 22.288 132.422 22.464 132.982 22.608L135.046 23.064C136.246 23.336 137.118 23.76 137.662 24.336C138.222 24.896 138.502 25.632 138.502 26.544C138.502 27.664 138.054 28.552 137.158 29.208C136.262 29.864 135.038 30.192 133.486 30.192Z" fill="white"/>
<ellipse cx="19.3972" cy="20.5" rx="19.3972" ry="20.5" fill="white"/>
<g filter="url(#filter0_d)">
<path d="M20.8127 29.98C19.0906 29.98 17.5817 29.59 16.2861 28.81C15.0068 28.03 14.0227 26.9293 13.3339 25.508C12.6451 24.0693 12.3007 22.388 12.3007 20.464C12.3007 18.5573 12.6451 16.8933 13.3339 15.472C14.0227 14.0333 15.0068 12.9327 16.2861 12.17C17.5817 11.39 19.0906 11 20.8127 11C21.9936 11 23.1006 11.1993 24.1339 11.598C25.1835 11.9793 26.0528 12.5167 26.7416 13.21L25.7084 15.654C24.9211 14.978 24.1339 14.4927 23.3466 14.198C22.5758 13.886 21.7475 13.73 20.8619 13.73C19.1726 13.73 17.8605 14.3107 16.9257 15.472C16.0073 16.6333 15.548 18.2973 15.548 20.464C15.548 22.648 16.0073 24.3293 16.9257 25.508C17.8441 26.6693 19.1562 27.25 20.8619 27.25C21.7475 27.25 22.5758 27.1027 23.3466 26.808C24.1339 26.496 24.9211 26.002 25.7084 25.326L26.7416 27.77C26.0528 28.4633 25.1835 29.0093 24.1339 29.408C23.1006 29.7893 21.9936 29.98 20.8127 29.98Z" fill="#62B1F3"/>
</g>
<defs>
<filter id="filter0_d" x="10.3007" y="11" width="18.4409" height="22.98" filterUnits="userSpaceOnUse" color-interpolation-filters="sRGB">
<feFlood flood-opacity="0" result="BackgroundImageFix"/>
<feColorMatrix in="SourceAlpha" type="matrix" values="0 0 0 0 0 0 0 0 0 0 0 0 0 0 0 0 0 0 127 0"/>
<feOffset dy="2"/>
<feGaussianBlur stdDeviation="1"/>
<feColorMatrix type="matrix" values="0 0 0 0 0 0 0 0 0 0 0 0 0 0 0 0 0 0 0.15 0"/>
<feBlend mode="normal" in2="BackgroundImageFix" result="effect1_dropShadow"/>
<feBlend mode="normal" in="SourceGraphic" in2="effect1_dropShadow" result="shape"/>
</filter>
</defs>
</svg>
