<svg width="143" height="41" viewBox="0 0 143 41" fill="none" xmlns="http://www.w3.org/2000/svg">
<path d="M62.6 29.5573C60.92 29.5573 59.448 29.1973 58.184 28.4773C56.936 27.7573 55.976 26.7413 55.304 25.4293C54.632 24.1013 54.296 22.5493 54.296 20.7733C54.296 19.0133 54.632 17.4773 55.304 16.1653C55.976 14.8373 56.936 13.8213 58.184 13.1173C59.448 12.3973 60.92 12.0373 62.6 12.0373C63.752 12.0373 64.832 12.2213 65.84 12.5893C66.864 12.9413 67.712 13.4373 68.384 14.0773L67.376 16.3333C66.608 15.7093 65.84 15.2613 65.072 14.9893C64.32 14.7013 63.512 14.5573 62.648 14.5573C61 14.5573 59.72 15.0933 58.808 16.1653C57.912 17.2373 57.464 18.7733 57.464 20.7733C57.464 22.7893 57.912 24.3413 58.808 25.4293C59.704 26.5013 60.984 27.0373 62.648 27.0373C63.512 27.0373 64.32 26.9013 65.072 26.6293C65.84 26.3413 66.608 25.8853 67.376 25.2613L68.384 27.5173C67.712 28.1573 66.864 28.6613 65.84 29.0293C64.832 29.3813 63.752 29.5573 62.6 29.5573ZM82.4193 17.2213V29.3413H79.4673V27.3973C79.0993 28.0693 78.5713 28.5973 77.8833 28.9813C77.1953 29.3493 76.4113 29.5333 75.5313 29.5333C74.4753 29.5333 73.5393 29.2773 72.7233 28.7653C71.9073 28.2533 71.2753 27.5253 70.8273 26.5813C70.3793 25.6373 70.1553 24.5413 70.1553 23.2933C70.1553 22.0453 70.3793 20.9413 70.8273 19.9813C71.2913 19.0053 71.9313 18.2533 72.7473 17.7253C73.5633 17.1813 74.4913 16.9093 75.5313 16.9093C76.4113 16.9093 77.1953 17.1013 77.8833 17.4853C78.5713 17.8533 79.0993 18.3733 79.4673 19.0453V17.2213H82.4193ZM76.3473 27.1813C77.3393 27.1813 78.1073 26.8373 78.6513 26.1493C79.1953 25.4613 79.4673 24.4933 79.4673 23.2453C79.4673 21.9653 79.1953 20.9813 78.6513 20.2933C78.1073 19.6053 77.3313 19.2613 76.3233 19.2613C75.3313 19.2613 74.5553 19.6213 73.9953 20.3413C73.4513 21.0453 73.1793 22.0293 73.1793 23.2933C73.1793 24.5413 73.4513 25.5013 73.9953 26.1733C74.5553 26.8453 75.3393 27.1813 76.3473 27.1813ZM92.2147 16.9333C92.6787 16.9333 93.0787 16.9973 93.4147 17.1253L93.3907 19.8613C92.8787 19.6533 92.3507 19.5493 91.8067 19.5493C90.7827 19.5493 89.9987 19.8453 89.4547 20.4373C88.9267 21.0293 88.6627 21.8133 88.6627 22.7893V29.3413H85.6867V20.6533C85.6867 19.3733 85.6227 18.2293 85.4947 17.2213H88.3027L88.5427 19.3573C88.8467 18.5733 89.3267 17.9733 89.9827 17.5573C90.6387 17.1413 91.3827 16.9333 92.2147 16.9333ZM101.997 16.9093C103.053 16.9093 103.981 17.1733 104.781 17.7013C105.597 18.2133 106.229 18.9413 106.677 19.8853C107.125 20.8293 107.349 21.9253 107.349 23.1733C107.349 24.4213 107.117 25.5333 106.653 26.5093C106.205 27.4693 105.573 28.2133 104.757 28.7413C103.957 29.2693 103.037 29.5333 101.997 29.5333C101.101 29.5333 100.301 29.3413 99.5971 28.9573C98.9091 28.5733 98.3891 28.0373 98.0371 27.3493V29.3413H95.0851V11.6773H98.0611V19.0453C98.4291 18.3733 98.9571 17.8533 99.6451 17.4853C100.333 17.1013 101.117 16.9093 101.997 16.9093ZM101.205 27.1813C102.197 27.1813 102.965 26.8293 103.509 26.1253C104.053 25.4213 104.325 24.4373 104.325 23.1733C104.325 21.9253 104.053 20.9653 103.509 20.2933C102.965 19.6053 102.189 19.2613 101.181 19.2613C100.173 19.2613 99.3971 19.6053 98.8531 20.2933C98.3091 20.9813 98.0371 21.9573 98.0371 23.2213C98.0371 24.5013 98.3091 25.4853 98.8531 26.1733C99.3971 26.8453 100.181 27.1813 101.205 27.1813ZM120.576 23.4373H112.224C112.288 24.7333 112.608 25.6933 113.184 26.3173C113.776 26.9253 114.648 27.2293 115.8 27.2293C117.128 27.2293 118.36 26.7973 119.496 25.9333L120.36 27.9973C119.784 28.4613 119.072 28.8373 118.224 29.1253C117.392 29.3973 116.544 29.5333 115.68 29.5333C113.696 29.5333 112.136 28.9733 111 27.8533C109.864 26.7333 109.296 25.1973 109.296 23.2453C109.296 22.0133 109.544 20.9173 110.04 19.9573C110.536 18.9973 111.232 18.2533 112.128 17.7253C113.024 17.1813 114.04 16.9093 115.176 16.9093C116.84 16.9093 118.152 17.4533 119.112 18.5413C120.088 19.6133 120.576 21.0933 120.576 22.9813V23.4373ZM115.248 19.0693C114.448 19.0693 113.792 19.3093 113.28 19.7893C112.784 20.2533 112.464 20.9333 112.32 21.8293H117.96C117.864 20.9173 117.584 20.2293 117.12 19.7653C116.672 19.3013 116.048 19.0693 115.248 19.0693ZM126.768 19.4773V24.9013C126.768 26.3253 127.432 27.0373 128.76 27.0373C129.128 27.0373 129.528 26.9733 129.96 26.8453V29.2213C129.432 29.4133 128.792 29.5093 128.04 29.5093C126.664 29.5093 125.608 29.1253 124.872 28.3573C124.136 27.5893 123.768 26.4853 123.768 25.0453V19.4773H121.44V17.2213H123.768V14.2693L126.768 13.2613V17.2213H129.984V19.4773H126.768ZM136.486 29.5333C134.294 29.5333 132.55 29.0213 131.254 27.9973L132.094 25.8853C133.39 26.8453 134.87 27.3253 136.534 27.3253C137.254 27.3253 137.806 27.2053 138.19 26.9653C138.59 26.7253 138.79 26.3893 138.79 25.9573C138.79 25.5893 138.654 25.3013 138.382 25.0933C138.11 24.8693 137.646 24.6773 136.99 24.5173L134.974 24.0613C132.766 23.5813 131.662 22.4533 131.662 20.6773C131.662 19.9413 131.87 19.2933 132.286 18.7333C132.702 18.1573 133.286 17.7093 134.038 17.3893C134.79 17.0693 135.662 16.9093 136.654 16.9093C137.518 16.9093 138.35 17.0453 139.15 17.3173C139.95 17.5733 140.654 17.9493 141.262 18.4453L140.374 20.4853C139.158 19.5893 137.91 19.1413 136.63 19.1413C135.942 19.1413 135.406 19.2693 135.022 19.5253C134.638 19.7813 134.446 20.1333 134.446 20.5813C134.446 20.9333 134.558 21.2133 134.782 21.4213C135.022 21.6293 135.422 21.8053 135.982 21.9493L138.046 22.4053C139.246 22.6773 140.118 23.1013 140.662 23.6773C141.222 24.2373 141.502 24.9733 141.502 25.8853C141.502 27.0053 141.054 27.8933 140.158 28.5493C139.262 29.2053 138.038 29.5333 136.486 29.5333Z" fill="#233348"/>
<circle cx="20.5" cy="20.5" r="20.5" fill="#458FF6"/>
<g filter="url(#filter0_d)">
<path d="M21.9959 28.9923C20.1759 28.9923 18.5813 28.6076 17.2119 27.8383C15.8599 27.069 14.8199 25.9835 14.0919 24.5816C13.3639 23.1627 12.9999 21.5044 12.9999 19.6068C12.9999 17.7263 13.3639 16.0852 14.0919 14.6833C14.8199 13.2644 15.8599 12.1789 17.2119 11.4266C18.5813 10.6574 20.1759 10.2727 21.9959 10.2727C23.2439 10.2727 24.4139 10.4693 25.5059 10.8625C26.6153 11.2386 27.5339 11.7686 28.2619 12.4524L27.1699 14.8628C26.3379 14.1961 25.5059 13.7174 24.6739 13.4268C23.8593 13.1191 22.9839 12.9652 22.0479 12.9652C20.2626 12.9652 18.8759 13.5379 17.8879 14.6833C16.9173 15.8287 16.4319 17.4699 16.4319 19.6068C16.4319 21.7609 16.9173 23.4191 17.8879 24.5816C18.8586 25.727 20.2453 26.2997 22.0479 26.2997C22.9839 26.2997 23.8593 26.1544 24.6739 25.8638C25.5059 25.5561 26.3379 25.0688 27.1699 24.4021L28.2619 26.8126C27.5339 27.4964 26.6153 28.0349 25.5059 28.4281C24.4139 28.8042 23.2439 28.9923 21.9959 28.9923Z" fill="white"/>
</g>
<defs>
<filter id="filter0_d" x="10.9999" y="10.2727" width="19.262" height="22.7196" filterUnits="userSpaceOnUse" color-interpolation-filters="sRGB">
<feFlood flood-opacity="0" result="BackgroundImageFix"/>
<feColorMatrix in="SourceAlpha" type="matrix" values="0 0 0 0 0 0 0 0 0 0 0 0 0 0 0 0 0 0 127 0"/>
<feOffset dy="2"/>
<feGaussianBlur stdDeviation="1"/>
<feColorMatrix type="matrix" values="0 0 0 0 0 0 0 0 0 0 0 0 0 0 0 0 0 0 0.15 0"/>
<feBlend mode="normal" in2="BackgroundImageFix" result="effect1_dropShadow"/>
<feBlend mode="normal" in="SourceGraphic" in2="effect1_dropShadow" result="shape"/>
</filter>
</defs>
</svg>
