<svg width="168" height="163" viewBox="0 0 168 163" fill="none" xmlns="http://www.w3.org/2000/svg">
<g filter="url(#filter0_d)">
<rect x="30" y="5" width="108" height="103" rx="10" fill="#B336FF"/>
</g>
<path d="M111.179 78.2626H105.96V46.796C105.96 46.3564 105.598 46 105.153 46H96.5444C96.0986 46 95.7374 46.3564 95.7374 46.796V78.2626H89.604V56.1351C89.604 55.6956 89.2427 55.3392 88.7969 55.3392H80.1887C79.7429 55.3392 79.3816 55.6956 79.3816 56.1351V78.2626H73.2482V60.3802C73.2482 59.9406 72.887 59.5842 72.4412 59.5842H63.8329C63.3871 59.5842 63.0259 59.9406 63.0259 60.3802V78.2625H57.8071C57.3613 78.2625 57 78.6189 57 79.0585C57 79.4981 57.3613 79.8545 57.8071 79.8545H111.179C111.624 79.8545 111.986 79.4981 111.986 79.0585C111.985 78.6189 111.624 78.2626 111.179 78.2626ZM71.6341 78.2626H64.6399V61.1762H71.6341V78.2626ZM87.99 78.2626H80.9957V56.9311H87.99V78.2626ZM104.346 78.2626H97.3515V47.592H104.346V78.2626Z" fill="white"/>
<path d="M108.548 21.6244C108.004 21.1509 107.28 20.9302 106.561 21.0194L99.674 21.8685C98.3068 22.037 97.3074 23.3026 97.4785 24.6524C97.6513 26.0163 98.9165 26.9883 100.301 26.8178L100.863 26.7487C92.4107 36.4145 82.3622 41.4099 75.2615 43.9204C66.4079 47.0509 59.5168 47.3187 59.4496 47.3209C58.0575 47.3638 56.9591 48.5159 57.0012 49.8891C57.0428 51.2453 58.1525 52.3076 59.5277 52.3076C59.5533 52.3076 59.5789 52.3073 59.6053 52.3065C59.9116 52.2973 67.2167 52.0429 76.8408 48.6607C82.251 46.7592 87.3419 44.235 91.9718 41.1583C92.3414 40.9128 92.4392 40.418 92.19 40.0535C91.9411 39.6888 91.4396 39.5925 91.0698 39.8382C86.552 42.8406 81.5823 45.3044 76.299 47.1612C66.9114 50.4603 59.8522 50.7064 59.5569 50.7152L59.5277 50.7156C59.0307 50.7156 58.6295 50.3315 58.6144 49.8409C58.5992 49.3442 58.9965 48.9275 59.5004 48.9119C59.5709 48.9097 66.6587 48.6532 75.8062 45.4189C83.4698 42.7093 94.4813 37.1768 103.42 26.2073C103.865 25.6612 103.395 24.8319 102.691 24.9189L100.102 25.2381C99.6526 25.2929 99.2166 25.0028 99.1026 24.5704C98.9656 24.0501 99.3342 23.5146 99.8744 23.4479L106.761 22.5988C107.299 22.5318 107.789 22.9604 107.789 23.4939V30.2861C107.789 30.7835 107.379 31.1882 106.874 31.1882C106.37 31.1882 105.96 30.7836 105.96 30.2861V28.227C105.96 27.9017 105.746 27.5975 105.438 27.4826C105.119 27.3638 104.743 27.4635 104.527 27.7236C101.513 31.3663 98.0811 34.6626 94.3263 37.5207C93.9735 37.7893 93.9081 38.2892 94.1805 38.6372C94.4528 38.9853 94.9598 39.0496 95.3125 38.7811C98.5832 36.2914 101.615 33.4781 104.348 30.3984C104.408 31.7217 105.518 32.7803 106.875 32.7803C108.269 32.7803 109.403 31.6614 109.403 30.2863V23.4941C109.403 22.7792 109.091 22.0976 108.548 21.6244Z" fill="white"/>
<defs>
<filter id="filter0_d" x="0" y="0" width="168" height="163" filterUnits="userSpaceOnUse" color-interpolation-filters="sRGB">
<feFlood flood-opacity="0" result="BackgroundImageFix"/>
<feColorMatrix in="SourceAlpha" type="matrix" values="0 0 0 0 0 0 0 0 0 0 0 0 0 0 0 0 0 0 127 0"/>
<feOffset dy="25"/>
<feGaussianBlur stdDeviation="15"/>
<feColorMatrix type="matrix" values="0 0 0 0 0.701961 0 0 0 0 0.211765 0 0 0 0 1 0 0 0 0.15 0"/>
<feBlend mode="normal" in2="BackgroundImageFix" result="effect1_dropShadow"/>
<feBlend mode="normal" in="SourceGraphic" in2="effect1_dropShadow" result="shape"/>
</filter>
</defs>
</svg>
